<?xml version="1.0" encoding="UTF-8" standalone="no"?>
<svg width="139px" height="23px" viewBox="0 0 139 23" version="1.1" xmlns="http://www.w3.org/2000/svg" xmlns:xlink="http://www.w3.org/1999/xlink">
    <!-- Generator: Sketch 3.6.1 (26313) - http://www.bohemiancoding.com/sketch -->
    <title>logo</title>
    <desc>Created with Sketch.</desc>
    <defs></defs>
    <g id="Page-1" stroke="none" stroke-width="1" fill="none" fill-rule="evenodd">
        <g id="mecenat_com-mobile" transform="translate(-19.000000, -16.000000)">
            <g id="logo" transform="translate(19.000000, 16.000000)">
                <g id="Group">
                    <g transform="translate(37.461446, 0.698250)" id="Shape" fill="#000000">
                        <path d="M0.212045918,3.55271368e-15 L2.12045918,3.55271368e-15 L10.5316139,19.760475 L10.6022959,19.760475 L18.8014048,3.55271368e-15 L20.709818,3.55271368e-15 L20.709818,21.2268 L19.3668605,21.2268 L19.3668605,1.605975 L19.2961786,1.605975 L11.1677517,21.2268 L9.82479422,21.2268 L1.5550034,1.605975 L1.48432143,1.605975 L1.48432143,21.2268 L0.141363946,21.2268 L0.141363946,3.55271368e-15 L0.212045918,3.55271368e-15 Z"></path>
                        <path d="M23.0423231,12.70815 C23.254369,9.705675 25.3041463,6.56355 28.696881,6.56355 C32.2309796,6.56355 34.2807568,9.566025 34.3514388,12.70815 L23.0423231,12.70815 L23.0423231,12.70815 Z M35.5530323,13.6857 C35.7650782,9.286725 33.5739371,5.516175 28.7675629,5.516175 C24.1025527,5.516175 21.9114116,9.566025 21.9114116,13.755525 C21.8407296,17.945025 24.2439167,21.5061 28.7675629,21.5061 C32.4430255,21.5061 34.8462126,19.551 35.4116684,15.989925 L34.2807568,15.989925 C33.715301,18.782925 31.6655238,20.52855 28.7675629,20.52855 C24.9507364,20.52855 23.0423231,17.246775 23.1130051,13.6857 L35.5530323,13.6857 L35.5530323,13.6857 Z"></path>
                        <path d="M48.9119252,10.683225 C48.6998793,7.96005 46.5087381,6.56355 43.6814592,6.56355 C39.7939507,6.56355 37.7441735,9.91515 37.7441735,13.4064 C37.7441735,17.526075 39.7232687,20.52855 43.6814592,20.52855 C46.5794201,20.52855 48.6998793,18.57345 49.0532891,15.78045 L50.1842007,15.78045 C49.6894269,19.41135 47.0035119,21.5061 43.6814592,21.5061 C38.6630391,21.5061 36.6132619,17.5959 36.6132619,13.336575 C36.6132619,9.07725 39.1578129,5.516175 43.6814592,5.516175 C47.0035119,5.516175 49.6894269,7.12215 50.0428367,10.6134 L48.9119252,10.6134 L48.9119252,10.683225 Z"></path>
                        <path d="M52.5167058,12.70815 C52.7287517,9.705675 54.7785289,6.56355 58.1712636,6.56355 C61.7053622,6.56355 63.7551395,9.566025 63.8258214,12.70815 L52.5167058,12.70815 L52.5167058,12.70815 Z M65.027415,13.6857 C65.2394609,9.286725 63.0483197,5.516175 58.2419456,5.516175 C53.5769354,5.516175 51.3857942,9.566025 51.3857942,13.755525 C51.3151122,17.945025 53.7182993,21.5061 58.2419456,21.5061 C61.9174082,21.5061 64.3205952,19.551 64.886051,15.989925 L63.7551395,15.989925 C63.1896837,18.782925 61.1399065,20.52855 58.2419456,20.52855 C54.425119,20.52855 52.5167058,17.246775 52.5873878,13.6857 L65.027415,13.6857 L65.027415,13.6857 Z"></path>
                        <path d="M66.6531003,5.935125 L67.7840119,5.935125 L67.7840119,9.2169 L67.8546939,9.2169 C68.6321956,6.912675 70.9647007,5.586 73.3678878,5.586 C78.8103997,5.586 78.8810816,9.91515 78.8810816,11.7306 L78.8810816,21.156975 L77.7501701,21.156975 L77.7501701,11.521125 C77.7501701,9.91515 77.5381241,6.56355 73.3678878,6.56355 C69.9044711,6.56355 67.7840119,9.2169 67.7840119,12.917625 L67.7840119,21.156975 L66.6531003,21.156975 L66.6531003,5.935125 L66.6531003,5.935125 Z"></path>
                        <path d="M91.2504269,15.3615 C91.2504269,16.129575 90.6849711,20.52855 85.4545051,20.52855 C82.7685901,20.52855 81.4256327,19.062225 81.4256327,17.17695 C81.4256327,14.872725 82.9806361,13.965 85.666551,13.615875 C87.8576922,13.336575 90.3315612,13.4064 91.2504269,12.42885 L91.2504269,15.3615 L91.2504269,15.3615 Z M92.3813384,9.566025 C92.3813384,6.4239 89.6954235,5.586 86.9388265,5.586 C83.3340459,5.586 81.2135867,7.2618 81.0722228,10.6134 L82.2031344,10.6134 C82.3444983,7.96005 84.1822296,6.56355 86.9388265,6.56355 C90.4729252,6.56355 91.2504269,8.867775 91.2504269,9.566025 C91.2504269,12.079725 91.038381,12.359025 85.9492789,12.777975 C83.4047279,12.98745 80.2947211,13.755525 80.2947211,17.3166 C80.2947211,20.52855 82.5565442,21.64575 85.4545051,21.64575 C88.423148,21.64575 90.4729252,20.039775 91.1797449,18.29415 L91.2504269,18.29415 L91.2504269,19.062225 C91.2504269,20.319075 91.5331548,21.296625 93.3002041,21.296625 C93.582932,21.296625 93.9363418,21.2268 94.2190697,21.156975 L94.2190697,20.179425 C93.8656599,20.24925 93.582932,20.24925 93.3708861,20.24925 C92.3813384,20.24925 92.3813384,19.2717 92.3813384,18.4338 L92.3813384,9.566025 L92.3813384,9.566025 Z"></path>
                        <path d="M101.075221,6.912675 L97.6824864,6.912675 L97.6824864,17.5959 C97.6824864,20.039775 98.8840799,20.319075 101.004539,20.24925 L101.004539,21.2268 C98.672034,21.36645 96.4102109,21.017325 96.5515748,17.5959 L96.5515748,6.912675 L93.7242959,6.912675 L93.7242959,5.935125 L96.5515748,5.935125 L96.5515748,1.187025 L97.6824864,1.187025 L97.6824864,5.935125 L101.075221,5.935125 L101.075221,6.912675 L101.075221,6.912675 Z"></path>
                    </g>
                    <g id="Shape" fill="#0093B0">
                        <path d="M22.4768673,11.87025 L27.2125595,11.87025 C27.4246054,11.87025 27.5659694,11.7306 27.5659694,11.521125 L27.5659694,0.69825 L26.1523299,0.69825 L26.1523299,10.543575 L23.8905068,10.543575 L23.8905068,0.69825 L22.4768673,0.69825 L22.4768673,11.59095 C22.5475493,11.660775 22.5475493,11.800425 22.4768673,11.87025 L22.4768673,11.87025 Z"></path>
                        <path d="M28.2727891,0.69825 L28.2727891,11.521125 C28.2727891,12.079725 27.7780153,12.5685 27.2125595,12.5685 L15.7620799,12.5685 L2.47386905,12.5685 C1.83773129,12.5685 1.41363946,12.14955 1.41363946,11.521125 L1.41363946,2.443875 C1.41363946,1.885275 1.83773129,1.3965 2.47386905,1.3965 L15.8327619,1.3965 C16.3982177,1.3965 16.8929915,1.885275 16.8929915,2.443875 L16.8929915,11.59095 C16.8929915,11.7306 16.8929915,11.800425 16.8223095,11.940075 L21.5580017,11.940075 C21.7700476,11.940075 21.9114116,11.800425 21.9114116,11.59095 L21.9114116,0.69825 L20.4977721,0.69825 L20.4977721,10.543575 L18.235949,10.543575 L18.235949,2.443875 C18.235949,1.1172 17.1050374,0 15.7620799,0 L2.47386905,0 C1.13091156,0 0,1.1172 0,2.443875 L0,11.59095 C0,12.8478 1.13091156,13.965 2.47386905,13.965 L27.2832415,13.965 C28.626199,13.965 29.7571105,12.8478 29.7571105,11.521125 L29.7571105,0.69825 L28.2727891,0.69825 L28.2727891,0.69825 Z"></path>
                        <path d="M2.47386905,2.09475 C2.26182313,2.09475 2.12045918,2.2344 2.12045918,2.443875 L2.12045918,11.59095 C2.12045918,11.7306 2.26182313,11.87025 2.47386905,11.87025 L15.0552602,11.87025 L15.0552602,11.87025 L15.8327619,11.87025 C15.9034439,11.87025 15.9741259,11.800425 16.0448078,11.800425 L16.0448078,11.800425 C16.1154898,11.7306 16.1861718,11.660775 16.1861718,11.521125 L16.1861718,11.521125 L16.1861718,2.37405 C16.1861718,2.164575 16.0448078,2.024925 15.8327619,2.024925 L2.47386905,2.09475 L2.47386905,2.09475 Z M14.7725323,10.543575 L3.53409864,10.543575 L3.53409864,3.49125 L14.7725323,3.49125 L14.7725323,10.543575 L14.7725323,10.543575 Z"></path>
                    </g>
                </g>
            </g>
        </g>
    </g>
</svg>